<svg width="24" height="24" viewBox="0 0 24 24" fill="none" xmlns="http://www.w3.org/2000/svg">
<path fill-rule="evenodd" clip-rule="evenodd" d="M2.09991 12C2.09991 6.53236 6.53228 2.09998 11.9999 2.09998C17.4675 2.09998 21.8998 6.53236 21.8998 12C21.8998 17.4676 17.4675 21.9 11.9999 21.9C6.53228 21.9 2.09991 17.4676 2.09991 12ZM16.6466 9.87581C16.9923 9.51866 16.983 8.94889 16.6258 8.60319C16.2687 8.2575 15.6989 8.26679 15.3532 8.62394L10.6773 13.4549L8.64745 11.3521C8.30224 10.9945 7.73248 10.9844 7.37486 11.3296C7.01724 11.6748 7.00717 12.2446 7.35238 12.6022L10.0288 15.3749C10.1983 15.5505 10.4318 15.6497 10.6758 15.6499C10.9198 15.65 11.1534 15.5511 11.3231 15.3758L16.6466 9.87581Z" fill="#374151"/>
</svg>
