<svg width="24" height="24" viewBox="0 0 24 24" fill="none" xmlns="http://www.w3.org/2000/svg">
<path d="M5.59999 15.1436C5.17019 15.1331 4.81375 15.1028 4.4906 15.0162C3.14474 14.6556 2.0935 13.6043 1.73288 12.2585C1.59933 11.76 1.59959 11.1824 1.59995 10.3786V10.1195C1.59959 9.31569 1.59933 8.7381 1.73288 8.23967C2.0935 6.89381 3.14474 5.84258 4.4906 5.48196C4.98902 5.3484 5.56661 5.34867 6.37046 5.34903L9.84962 5.34907L16.6735 3.00336C16.829 2.94985 16.9974 2.89193 17.1448 2.85564C17.3048 2.81629 17.5526 2.77137 17.8321 2.83961C18.1812 2.92485 18.4841 3.14107 18.6782 3.44351C18.8336 3.68562 18.8717 3.93459 18.8865 4.09861C18.9001 4.24989 18.9 4.42789 18.9 4.59239V15.9057C18.9 16.0702 18.9001 16.2482 18.8865 16.3995C18.8717 16.5635 18.8336 16.8125 18.6782 17.0546C18.4841 17.3571 18.1812 17.5733 17.8321 17.6585C17.5526 17.7268 17.3048 17.6818 17.1448 17.6425C16.9973 17.6062 16.829 17.5483 16.6735 17.4948L10.9 15.5101V18.9991C10.9 20.4626 9.71354 21.6491 8.24999 21.6491C6.78644 21.6491 5.59999 20.4626 5.59999 18.9991V15.1436Z" fill="#374151"/>
<path d="M22.4 7.499C22.4 7.00194 21.997 6.599 21.5 6.599C21.0029 6.599 20.6 7.00194 20.6 7.499V12.999C20.6 13.4961 21.0029 13.899 21.5 13.899C21.997 13.899 22.4 13.4961 22.4 12.999V7.499Z" fill="#374151"/>
</svg>
