<svg preserveAspectRatio="none" width="100%" height="100%" overflow="visible" style="display: block;" viewBox="0 0 14.0001 14" fill="none" xmlns="http://www.w3.org/2000/svg">
<g id="Shape">
<path id="Normal" fill-rule="evenodd" clip-rule="evenodd" d="M8.01164 12.4387C8.43488 12.0998 9.00065 11.6111 9.56823 11.013C10.6801 9.84131 11.8999 8.14466 11.8999 6.27053C11.8999 3.56434 9.7061 1.37053 6.9999 1.37053C4.2937 1.37053 2.09989 3.56434 2.09989 6.27053C2.09989 8.14466 3.3197 9.84131 4.43157 11.013C4.99914 11.6111 5.56491 12.0998 5.98815 12.4387C6.22091 12.6251 6.45784 12.8083 6.70472 12.9758C6.87981 13.0943 7.11874 13.0948 7.29403 12.9765C7.5413 12.8088 7.77856 12.6253 8.01164 12.4387ZM8.60414 6.27048C8.60414 7.15643 7.88593 7.87464 6.99997 7.87464C6.11401 7.87464 5.3958 7.15643 5.3958 6.27048C5.3958 5.38452 6.11401 4.66631 6.99997 4.66631C7.88593 4.66631 8.60414 5.38452 8.60414 6.27048Z" fill="var(--fill-0, #6B5CFF)"/>
</g>
</svg>
