<svg preserveAspectRatio="none" width="100%" height="100%" overflow="visible" style="display: block;" viewBox="0 0 20 20" fill="none" xmlns="http://www.w3.org/2000/svg">
<g id="Group">
<g id="Vector">
</g>
<path id="Vector_2" opacity="0.3" d="M17.0833 11.6667C17.7737 11.6667 18.3333 11.107 18.3333 10.4167C18.3333 9.72631 17.7737 9.16667 17.0833 9.16667C16.393 9.16667 15.8333 9.72631 15.8333 10.4167C15.8333 11.107 16.393 11.6667 17.0833 11.6667Z" fill="var(--fill-0, #6B5CFF)"/>
<path id="Vector_3" opacity="0.3" d="M15.6846 0.873923L2.80561 4.32484C2.36105 4.44396 2.09724 4.90091 2.21635 5.34546L3.29477 9.37016C3.41388 9.81471 3.87083 10.0785 4.31539 9.95941L17.1944 6.50849C17.639 6.38937 17.9028 5.93243 17.7837 5.48787L16.7052 1.46318C16.5861 1.01862 16.1292 0.754805 15.6846 0.873923Z" fill="var(--fill-0, #6B5CFF)"/>
<path id="Vector_4" fill-rule="evenodd" clip-rule="evenodd" d="M18.3333 7.78068C17.9545 7.6007 17.5307 7.5 17.0833 7.5C15.4725 7.5 14.1667 8.80584 14.1667 10.4167C14.1667 12.0275 15.4725 13.3333 17.0833 13.3333C17.5307 13.3333 17.9545 13.2326 18.3333 13.0527V15C18.3333 15.9205 17.5871 16.6667 16.6667 16.6667H3.33333C2.41286 16.6667 1.66667 15.9205 1.66667 15V5C1.66667 4.07953 2.41286 3.33333 3.33333 3.33333H16.6667C17.5871 3.33333 18.3333 4.07953 18.3333 5V7.78068Z" fill="var(--fill-0, #6B5CFF)"/>
</g>
</svg>
